<svg xmlns="http://www.w3.org/2000/svg" width="13" height="13" viewBox="0 0 13 13" fill="none">
  <path d="M12.3952 2.50045L10.4996 0.604842C10.2708 0.376006 9.96654 0.25 9.64293 0.25C9.31936 0.25 9.01513 0.376006 8.78632 0.604834L0.851244 8.53988C0.775927 8.6152 0.727376 8.71315 0.713064 8.8187L0.254426 12.1976C0.233983 12.3483 0.285091 12.4999 0.392628 12.6074C0.484548 12.6993 0.608652 12.75 0.73689 12.75C0.758645 12.75 0.78054 12.7485 0.802413 12.7456L4.18128 12.287C4.28684 12.2726 4.38479 12.2241 4.4601 12.1488L12.3952 4.21373C12.624 3.98492 12.75 3.68068 12.75 3.3571C12.75 3.03349 12.624 2.72926 12.3952 2.50045ZM3.88761 11.344L1.30545 11.6945L1.65594 9.11237L7.27895 3.48939L9.5106 5.72106L3.88761 11.344ZM11.7066 3.52511L10.1992 5.03245L7.96755 2.80078L9.47489 1.29345C9.53547 1.23288 9.60617 1.22383 9.64293 1.22383C9.67969 1.22383 9.75039 1.23288 9.81098 1.29345L11.7066 3.18906C11.7671 3.24961 11.7762 3.32033 11.7762 3.35708C11.7762 3.39383 11.7671 3.46454 11.7066 3.52511Z" fill="#BE2623"/>
</svg>