<svg width="23" height="24" viewBox="0 0 23 24" fill="none" xmlns="http://www.w3.org/2000/svg">
<g id="Layer_1" clipPath="url(#clip0_1315_982)">
<g id="Group">
<path id="Vector" d="M15.2658 7.63975H9.03662C8.88784 7.63975 8.76709 7.51918 8.76709 7.37022V6.4707C8.76709 5.8267 9.29106 5.30273 9.93506 5.30273H14.3674C15.0114 5.30273 15.5354 5.8267 15.5354 6.4707V7.37022C15.5354 7.51918 15.4146 7.63975 15.2658 7.63975ZM9.30615 7.10069H14.9963V6.4707C14.9963 6.12391 14.7142 5.8418 14.3674 5.8418H9.93506C9.58826 5.8418 9.30615 6.12391 9.30615 6.4707V7.10069Z" fill="#EE3E36"/>
</g>
<g id="Group_2">
<path id="Vector_2" d="M9.04053 17.8875C8.89175 17.8875 8.771 17.7669 8.771 17.618V11.7456C8.771 11.5966 8.89175 11.4761 9.04053 11.4761C9.18931 11.4761 9.31006 11.5966 9.31006 11.7456V17.618C9.31006 17.7668 9.18931 17.8875 9.04053 17.8875Z" fill="#EE3E36"/>
</g>
<g id="Group_3">
<path id="Vector_3" d="M12.1533 17.8875C12.0045 17.8875 11.8838 17.7669 11.8838 17.618V11.7456C11.8838 11.5966 12.0045 11.4761 12.1533 11.4761C12.3021 11.4761 12.4229 11.5966 12.4229 11.7456V17.618C12.4229 17.7668 12.3021 17.8875 12.1533 17.8875Z" fill="#EE3E36"/>
</g>
<g id="Group_4">
<path id="Vector_4" d="M15.2661 17.8875C15.1173 17.8875 14.9966 17.7669 14.9966 17.618V11.7456C14.9966 11.5966 15.1173 11.4761 15.2661 11.4761C15.4149 11.4761 15.5356 11.5966 15.5356 11.7456V17.618C15.5356 17.7668 15.4149 17.8875 15.2661 17.8875Z" fill="#EE3E36"/>
</g>
<g id="Group_5">
<path id="Vector_5" d="M17.5648 9.83178H6.73792C6.15411 9.83178 5.6792 9.30781 5.6792 8.66381V8.26868C5.6792 7.62468 6.15411 7.10071 6.73792 7.10071H17.5648C18.1486 7.10071 18.6235 7.62468 18.6235 8.26868V8.66381C18.6235 9.30781 18.1486 9.83178 17.5648 9.83178ZM6.73792 7.63977C6.45132 7.63977 6.21826 7.92188 6.21826 8.26868V8.66381C6.21826 9.01061 6.45132 9.29272 6.73792 9.29272H17.5648C17.8514 9.29272 18.0845 9.01061 18.0845 8.66381V8.26868C18.0845 7.92188 17.8514 7.63977 17.5648 7.63977H6.73792Z" fill="#313335"/>
</g>
<g id="Group_6">
<path id="Vector_6" d="M16.4579 19.9083H7.84461C7.24518 19.9083 6.75732 19.3843 6.75732 18.7403V9.56226C6.75732 9.41329 6.87807 9.29272 7.02686 9.29272H17.2755C17.4243 9.29272 17.545 9.41329 17.545 9.56226V18.7403C17.5452 19.3843 17.0574 19.9083 16.4579 19.9083ZM7.29639 9.83179V18.7403C7.29639 19.0871 7.5422 19.3692 7.84461 19.3692H16.4579C16.7603 19.3692 17.0062 19.0871 17.0062 18.7403V9.83179H7.29639Z" fill="#313335"/>
</g>
</g>
<defs>
<clipPath id="clip0_1315_982">
<rect width="23" height="23" fill="white" transform="translate(0 0.75)"/>
</clipPath>
</defs>
</svg>
