<?xml version="1.0" encoding="UTF-8"?><svg id="a" xmlns="http://www.w3.org/2000/svg" viewBox="0 0 315 315"><defs><style>.c{fill:#0e3746;}</style></defs><g id="b"><path class="c" d="M186.44,47.05c-8.51,10.35-17.36,20.36-26.36,30.22l-4.21-3.56c9.97-9.11,20.1-18.05,30.57-26.66Zm21.63,65.37c-.42,3.2-.98,6.34-2.26,9.22-1.91,4.81-5.43,8.94-8.48,11.86l.02,.02c-.15,.14-.33,.26-.47,.41-2.84,2.65-5.16,4.21-5.16,4.21l-.03-.03c-4.5,3.27-9.47,6.06-14.67,8.49-5.53,2.57-11.24,4.83-17.07,6.9,2.6,.87,5.28,1.7,7.96,2.45,3.76,1.04,7.78,.73,11.34-.88,.49-.22,.97-.44,1.46-.67,6.53-3.11,12.95-6.81,18.58-11.8,1.27-1.11,2.49-2.31,3.68-3.57l8.98,8.82c6.7,6.36,13.28,12.83,20.09,19.08,13.51,12.61,27.22,25,41.54,36.8-11.8-14.32-24.19-28.04-36.8-41.54-6.25-6.81-12.71-13.4-19.08-20.09l-9.54-9.71c1.66-2.62,3.04-5.45,3.96-8.47,1.19-3.68,1.63-7.55,1.58-11.33-.13-1.89-.22-3.76-.6-5.58-.26-1.84-.76-3.61-1.26-5.38-2.14-7.01-5.77-13.26-9.99-18.89,2.58,6.56,5.02,13.12,5.88,19.82,.5,3.34,.64,6.66,.35,9.88Zm-53.48-39.79c-.62-13.33-1.49-26.65-2.93-39.98-1.27,11.74-2.09,23.48-2.69,35.22l5.62,4.76Zm-62.98,52.46l5.28-5.17c-.83-2.39-1.28-4.92-1.61-7.5-.29-3.22-.16-6.54,.35-9.86,.85-6.7,3.31-13.27,5.88-19.82-4.23,5.64-7.86,11.88-10.01,18.89-1.06,3.5-1.7,7.18-1.87,10.96-.05,3.78,.39,7.65,1.58,11.33,.12,.4,.26,.79,.4,1.18Zm-20.31,41.84c6.81-6.25,13.4-12.71,20.09-19.08l8.97-8.82c1.18,1.25,2.41,2.45,3.68,3.57,5.64,4.98,12.05,8.68,18.59,11.8,5.06,2.37,10.23,4.37,15.46,6.08-6.61,1.88-13.26,3.75-19.95,5.55-6.73,1.87-13.55,3.65-20.26,5.84,14.08-.7,28.09-2.17,41.98-4.9,2.65-.52,5.29-1.09,7.93-1.7,.12,5.53,.26,11.06,.52,16.59,.63,16.58,1.57,33.16,3.35,49.74,1.79-16.58,2.72-33.16,3.35-49.74,.26-5.53,.39-11.07,.52-16.6,2.64,.6,5.29,1.17,7.93,1.7,13.89,2.72,27.9,4.2,41.98,4.92-6.71-2.18-13.53-3.96-20.26-5.83-4.96-1.33-9.88-2.73-14.81-4.12l-.05,.02s-19.34-5.31-29.28-9.26c-.07-.02-.12-.05-.19-.09-4.95-1.83-9.82-3.8-14.54-6-6.1-2.86-11.95-6.17-17.01-10.24-1.16-.9-2.27-1.85-3.31-2.85l5.16-5.07,19.43-19.75c5.82-6.13,11.71-12.18,17.46-18.38-.16,5.65-.29,11.29-.45,16.94l-.22,24.87,.16,16.76c2.56,1.04,5.34,2.11,8.27,3.17l.19-19.93-.22-24.87c-.16-5.65-.29-11.29-.45-16.94,5.74,6.2,11.64,12.25,17.46,18.38l19.43,19.75,.44,.43c2.36-2.02,4.25-4.52,5.58-6.61l-19.66-19.34c-6.62-6.29-13.14-12.68-19.86-18.86l-15.6-14.34c-8.55-7.72-17.24-15.32-26.17-22.66,9.78,11.88,19.98,23.33,30.36,34.6-.79,.74-1.58,1.46-2.37,2.19-6.81,6.25-13.39,12.72-20.09,19.08l-18.25,17.96-17.07,17.26-3.88,3.95c-6.36,6.7-12.83,13.28-19.08,20.09-12.6,13.51-24.99,27.22-36.79,41.54,14.32-11.8,28.04-24.19,41.54-36.8Z"/></g><g><path class="c" d="M21.35,281.5v-14.76h8.2l-.62-.96h-4.15c-4.55-4.32-4.04-12.35-1.96-16.22,3.54-6.62,8.87-7.35,17.01-7.35h21.11v14.88h-18.97c-6.68,0-7.41,9.71-.06,9.71,6.01,0,5.73-7.63,1.18-8.76h13.3c5.95,4.55,5.95,12.69,2.53,17.79-3.82,5.67-9.26,5.67-15.83,5.67H21.35Z"/><path class="c" d="M71.2,256.24h-8.76v-14.03h32.05v14.03h-8.76v25.26h-14.54v-25.26Z"/><path class="c" d="M120.49,242.26l15.66,39.24h-15.66l-8.81-24.42-4.21,11.34h7.24l4.72,13.08h-31.94l15.38-39.24h17.63Z"/><path class="c" d="M136.71,281.5v-39.3h16.11c15.66,0,20.66,7.07,20.49,15.33-.06,4.1-1.91,8.36-6.29,9.82l7.69,14.15h-15.27l-7.13-14.88v-5.39h3.37c1.96,0,3.03-1.46,3.03-2.53-.06-1.85-1.68-2.97-3.31-2.97h-4.1v25.77h-14.6Z"/><path class="c" d="M192.9,242.21c5.73,0,11.4,1.24,14.43,5,3.09,3.82,3.31,10.27-.73,13.58,5.5,2.47,6.57,9.09,4.04,14.09-2.75,5.45-9.32,6.62-16.34,6.62h-18.92v-39.3h17.51Zm1.18,14.15c3.54,0,3.54-4.21,0-4.21h-4.1v18.64h4.6c3.7,0,3.65-4.43-.06-4.43h-3.59v-9.99h3.14Z"/><path class="c" d="M235.85,242.49v-.28h14.71v20.83c0,25.77-37.5,25.77-37.5,0v-20.83h14.6v20.66c0,6.4,8.2,6.4,8.2,0v-20.38Z"/><path class="c" d="M274.13,262.36h19.59v19.14h-20.88c-13.25,0-21.16-8.65-21.16-20.1s9.77-19.99,21.05-19.99,21,7.97,21,19.93h-15.44c-.22-2.81-2.64-4.94-5.56-4.94-3.09,0-5.56,2.53-5.56,5.61s2.47,5.56,5.56,5.56h5.56v-4.27h-4.15v-.95Z"/></g></svg>