<svg xmlns="http://www.w3.org/2000/svg" id="a" viewBox="0 0 584.71 149.6"><defs fill="#000000"><style>.c{fill:#f4f2ec;}</style></defs><g id="b"><path class="c" d="M127.36,14.33c-6.05,7.35-12.34,14.47-18.73,21.48l-2.99-2.53c7.09-6.47,14.29-12.83,21.72-18.95Zm15.38,46.46c-.3,2.27-.69,4.51-1.61,6.55-1.36,3.42-3.86,6.35-6.02,8.43h.01c-.1,.11-.23,.2-.34,.3-2.02,1.89-3.67,2.99-3.67,2.99l-.02-.02c-3.2,2.33-6.73,4.31-10.42,6.03-3.93,1.83-7.99,3.43-12.13,4.91,1.85,.62,3.75,1.2,5.66,1.74,2.67,.74,5.53,.52,8.06-.63,.35-.15,.69-.31,1.03-.47,4.64-2.21,9.2-4.84,13.21-8.39,.9-.79,1.77-1.64,2.61-2.54l6.38,6.27c4.76,4.52,9.44,9.12,14.28,13.56,9.6,8.96,19.35,17.77,29.52,26.15-8.38-10.18-17.19-19.92-26.15-29.52-4.44-4.84-9.03-9.52-13.56-14.28l-6.78-6.9c1.18-1.86,2.16-3.87,2.82-6.02,.85-2.62,1.16-5.37,1.12-8.05-.09-1.34-.15-2.67-.43-3.97-.18-1.31-.54-2.57-.9-3.82-1.52-4.98-4.1-9.42-7.1-13.43,1.83,4.66,3.57,9.32,4.18,14.09,.36,2.37,.46,4.73,.25,7.02Zm-38.01-28.28c-.44-9.47-1.06-18.94-2.08-28.41-.9,8.35-1.49,16.68-1.91,25.03l3.99,3.38Zm-44.76,37.29l3.75-3.67c-.59-1.7-.91-3.5-1.14-5.33-.21-2.29-.12-4.65,.25-7.01,.61-4.76,2.35-9.43,4.18-14.09-3.01,4-5.58,8.44-7.11,13.42-.75,2.49-1.21,5.1-1.33,7.79-.03,2.68,.28,5.43,1.12,8.05,.08,.29,.19,.56,.29,.84Zm-14.43,29.74c4.84-4.44,9.52-9.03,14.28-13.56l6.38-6.27c.84,.89,1.71,1.74,2.61,2.54,4.01,3.54,8.57,6.17,13.21,8.38,3.6,1.68,7.27,3.1,10.99,4.32-4.7,1.34-9.42,2.67-14.18,3.94-4.79,1.33-9.63,2.6-14.4,4.15,10.01-.5,19.96-1.54,29.83-3.48,1.88-.37,3.76-.78,5.64-1.2,.09,3.93,.18,7.86,.37,11.79,.45,11.78,1.12,23.57,2.38,35.35,1.27-11.78,1.93-23.57,2.38-35.35,.19-3.93,.28-7.87,.37-11.79,1.88,.43,3.76,.83,5.64,1.2,9.87,1.94,19.83,2.99,29.83,3.49-4.77-1.55-9.62-2.81-14.4-4.14-3.53-.95-7.02-1.94-10.52-2.93h-.04s-13.74-3.76-20.81-6.57c-.05-.02-.09-.04-.13-.06-3.52-1.3-6.98-2.7-10.34-4.26-4.33-2.04-8.49-4.38-12.09-7.28-.83-.64-1.61-1.31-2.35-2.02l3.67-3.6,13.81-14.03c4.14-4.36,8.32-8.65,12.41-13.06-.12,4.02-.2,8.03-.32,12.04l-.16,17.67,.12,11.91c1.82,.74,3.8,1.5,5.88,2.25l.14-14.17-.16-17.67c-.12-4.02-.2-8.03-.32-12.04,4.08,4.41,8.27,8.7,12.41,13.06l13.81,14.03,.31,.31c1.68-1.44,3.02-3.21,3.97-4.7l-13.97-13.75c-4.7-4.47-9.34-9.01-14.12-13.41l-11.09-10.19c-6.08-5.49-12.25-10.89-18.6-16.11,6.95,8.44,14.2,16.58,21.57,24.59-.56,.52-1.12,1.03-1.68,1.56-4.84,4.44-9.52,9.04-14.28,13.56l-12.97,12.76-12.13,12.27-2.76,2.81c-4.52,4.76-9.12,9.44-13.56,14.28-8.96,9.6-17.76,19.35-26.15,29.52,10.18-8.38,19.92-17.19,29.52-26.15Z" fill="#000000"/></g><g><path class="c" d="M201.12,101.27v-19.92h11.06l-.83-1.29h-5.61c-6.14-5.83-5.45-16.67-2.65-21.89,4.77-8.94,11.97-9.92,22.95-9.92h28.49v20.08h-25.61c-9.02,0-10,13.11-.08,13.11,8.11,0,7.73-10.3,1.59-11.82h17.95c8.03,6.14,8.03,17.12,3.41,24.02-5.15,7.65-12.5,7.65-21.36,7.65h-29.32Z" fill="#000000"/><path class="c" d="M268.39,67.17h-11.82v-18.94h43.26v18.94h-11.82v34.09h-19.62v-34.09Z" fill="#000000"/><path class="c" d="M334.91,48.31l21.14,52.96h-21.14l-11.89-32.96-5.68,15.3h9.77l6.36,17.65h-43.11l20.76-52.96h23.79Z" fill="#000000"/><path class="c" d="M356.8,101.27V48.23h21.74c21.14,0,27.88,9.55,27.65,20.68-.08,5.53-2.58,11.29-8.49,13.26l10.38,19.09h-20.61l-9.62-20.08v-7.27h4.55c2.65,0,4.09-1.97,4.09-3.41-.08-2.5-2.27-4.01-4.47-4.01h-5.53v34.77h-19.7Z" fill="#000000"/><path class="c" d="M432.64,48.23c7.73,0,15.38,1.67,19.47,6.74,4.17,5.15,4.47,13.86-.98,18.33,7.43,3.33,8.86,12.27,5.45,19.02-3.71,7.35-12.58,8.94-22.05,8.94h-25.53V48.23h23.64Zm1.59,19.09c4.77,0,4.77-5.68,0-5.68h-5.53v25.15h6.21c5,0,4.92-5.98-.08-5.98h-4.85v-13.48h4.24Z" fill="#000000"/><path class="c" d="M490.59,48.61v-.38h19.85v28.11c0,34.77-50.61,34.77-50.61,0v-28.11h19.7v27.88c0,8.64,11.06,8.64,11.06,0v-27.5Z" fill="#000000"/><path class="c" d="M542.26,75.43h26.44v25.83h-28.18c-17.88,0-28.56-11.67-28.56-27.12s13.18-26.97,28.41-26.97,28.33,10.76,28.33,26.89h-20.83c-.3-3.79-3.56-6.67-7.5-6.67-4.17,0-7.5,3.41-7.5,7.58s3.33,7.5,7.5,7.5h7.5v-5.76h-5.61v-1.29Z" fill="#000000"/></g></svg>