<?xml version="1.0" standalone="no"?>
<!DOCTYPE svg PUBLIC "-//W3C//DTD SVG 20010904//EN"
 "http://www.w3.org/TR/2001/REC-SVG-20010904/DTD/svg10.dtd">
<svg version="1.0" xmlns="http://www.w3.org/2000/svg"
 width="512.000000pt" height="512.000000pt" viewBox="0 0 512.000000 512.000000"
 preserveAspectRatio="xMidYMid meet">

<g transform="translate(0.000000,512.000000) scale(0.100000,-0.100000)"
fill="#000000" stroke="none">
<path d="M2370 5113 c-371 -35 -653 -114 -961 -269 -386 -193 -732 -501 -982
-872 -164 -244 -313 -599 -371 -882 -43 -212 -51 -295 -51 -530 0 -312 34
-526 126 -805 53 -159 173 -417 255 -545 205 -322 503 -620 824 -824 100 -64
351 -186 475 -232 129 -47 369 -107 515 -129 485 -70 1003 9 1448 221 286 136
489 280 718 508 217 218 355 408 488 677 309 621 350 1331 115 1993 -47 133
-163 373 -235 486 -211 333 -537 653 -856 843 -413 246 -871 371 -1338 365
-74 0 -151 -3 -170 -5z m406 -244 c677 -66 1280 -416 1681 -977 312 -437 465
-1010 412 -1548 -51 -529 -273 -1010 -642 -1391 -173 -179 -331 -301 -537
-417 -696 -390 -1537 -394 -2240 -10 -207 113 -343 215 -526 398 -229 230
-378 447 -497 728 -249 582 -247 1241 4 1825 121 283 287 521 518 745 329 320
718 525 1161 612 229 45 448 57 666 35z"/>
<path d="M1305 3601 c-85 -21 -166 -84 -205 -160 -11 -22 -24 -71 -30 -108
-13 -90 -13 -1456 0 -1546 6 -37 19 -86 30 -108 27 -52 89 -111 148 -140 l47
-24 1265 0 1265 0 50 25 c100 49 158 132 175 247 5 39 10 364 10 773 0 409 -5
734 -10 773 -17 115 -75 198 -175 247 l-50 25 -1245 2 c-685 0 -1258 -2 -1275
-6z m2304 -238 c0 -10 -1039 -928 -1049 -928 -10 0 -1048 918 -1049 928 -1 4
472 7 1049 7 578 0 1050 -3 1049 -7z m-1876 -522 c207 -184 376 -335 374 -336
-1 -1 -175 -137 -387 -302 -212 -164 -391 -303 -397 -307 -10 -6 -13 128 -13
654 l0 661 23 -18 c12 -10 192 -168 400 -352z m2075 -622 l-3 -330 -145 112
c-80 63 -258 202 -397 310 l-251 196 396 352 397 351 3 -330 c1 -182 1 -479 0
-661z m-1417 38 c107 -95 125 -107 169 -107 44 0 62 12 169 107 51 45 96 83
100 83 6 0 716 -551 741 -576 12 -12 -116 -14 -1010 -14 -895 0 -1022 2 -1010
15 24 23 734 575 741 575 4 0 49 -38 100 -83z"/>
</g>
</svg>
